<svg id="visual" viewBox="0 0 1920 1080" width="1920" height="1080" xmlns="http://www.w3.org/2000/svg" xmlns:xlink="http://www.w3.org/1999/xlink" version="1.1"><rect x="0" y="0" width="1920" height="1080" fill="#00b0f0"></rect><path d="M0 697L45.7 688.5C91.3 680 182.7 663 274.2 679.2C365.7 695.3 457.3 744.7 548.8 760.7C640.3 776.7 731.7 759.3 823 743.7C914.3 728 1005.7 714 1097 716C1188.3 718 1279.7 736 1371.2 748.8C1462.7 761.7 1554.3 769.3 1645.8 760.8C1737.3 752.3 1828.7 727.7 1874.3 715.3L1920 703L1920 1081L1874.3 1081C1828.7 1081 1737.3 1081 1645.8 1081C1554.3 1081 1462.7 1081 1371.2 1081C1279.7 1081 1188.3 1081 1097 1081C1005.7 1081 914.3 1081 823 1081C731.7 1081 640.3 1081 548.8 1081C457.3 1081 365.7 1081 274.2 1081C182.7 1081 91.3 1081 45.7 1081L0 1081Z" fill="#ffffff"></path><path d="M0 831L45.7 830.8C91.3 830.7 182.7 830.3 274.2 830.7C365.7 831 457.3 832 548.8 828.5C640.3 825 731.7 817 823 796.8C914.3 776.7 1005.7 744.3 1097 743C1188.3 741.7 1279.7 771.3 1371.2 792.2C1462.7 813 1554.3 825 1645.8 813.5C1737.3 802 1828.7 767 1874.3 749.5L1920 732L1920 1081L1874.3 1081C1828.7 1081 1737.3 1081 1645.8 1081C1554.3 1081 1462.7 1081 1371.2 1081C1279.7 1081 1188.3 1081 1097 1081C1005.7 1081 914.3 1081 823 1081C731.7 1081 640.3 1081 548.8 1081C457.3 1081 365.7 1081 274.2 1081C182.7 1081 91.3 1081 45.7 1081L0 1081Z" fill="#e6f1fc"></path><path d="M0 921L45.7 902C91.3 883 182.7 845 274.2 822.7C365.7 800.3 457.3 793.7 548.8 804.7C640.3 815.7 731.7 844.3 823 864.3C914.3 884.3 1005.7 895.7 1097 897.3C1188.3 899 1279.7 891 1371.2 879.2C1462.7 867.3 1554.3 851.7 1645.8 844.2C1737.3 836.7 1828.7 837.3 1874.3 837.7L1920 838L1920 1081L1874.3 1081C1828.7 1081 1737.3 1081 1645.8 1081C1554.3 1081 1462.7 1081 1371.2 1081C1279.7 1081 1188.3 1081 1097 1081C1005.7 1081 914.3 1081 823 1081C731.7 1081 640.3 1081 548.8 1081C457.3 1081 365.7 1081 274.2 1081C182.7 1081 91.3 1081 45.7 1081L0 1081Z" fill="#cce3f9"></path><path d="M0 905L45.7 912.7C91.3 920.3 182.7 935.7 274.2 933C365.7 930.3 457.3 909.7 548.8 906.2C640.3 902.7 731.7 916.3 823 930.2C914.3 944 1005.7 958 1097 950.2C1188.3 942.3 1279.7 912.7 1371.2 910.3C1462.7 908 1554.3 933 1645.8 943.3C1737.3 953.7 1828.7 949.3 1874.3 947.2L1920 945L1920 1081L1874.3 1081C1828.7 1081 1737.3 1081 1645.8 1081C1554.3 1081 1462.7 1081 1371.2 1081C1279.7 1081 1188.3 1081 1097 1081C1005.7 1081 914.3 1081 823 1081C731.7 1081 640.3 1081 548.8 1081C457.3 1081 365.7 1081 274.2 1081C182.7 1081 91.3 1081 45.7 1081L0 1081Z" fill="#b1d5f6"></path><path d="M0 1020L45.7 1009.3C91.3 998.7 182.7 977.3 274.2 970.2C365.7 963 457.3 970 548.8 976.3C640.3 982.7 731.7 988.3 823 984.5C914.3 980.7 1005.7 967.3 1097 961.3C1188.3 955.3 1279.7 956.7 1371.2 960.8C1462.7 965 1554.3 972 1645.8 980.2C1737.3 988.3 1828.7 997.7 1874.3 1002.3L1920 1007L1920 1081L1874.3 1081C1828.7 1081 1737.3 1081 1645.8 1081C1554.3 1081 1462.7 1081 1371.2 1081C1279.7 1081 1188.3 1081 1097 1081C1005.7 1081 914.3 1081 823 1081C731.7 1081 640.3 1081 548.8 1081C457.3 1081 365.7 1081 274.2 1081C182.7 1081 91.3 1081 45.7 1081L0 1081Z" fill="#94c8f2"></path></svg>